<?xml version="1.0" encoding="utf-8"?>
<!-- Generator: Adobe Illustrator 23.0.1, SVG Export Plug-In . SVG Version: 6.00 Build 0)  -->
<svg version="1.1" id="Layer_1" focusable="false" xmlns="http://www.w3.org/2000/svg" xmlns:xlink="http://www.w3.org/1999/xlink"
	 x="0px" y="0px" viewBox="0 0 128 128" style="enable-background:new 0 0 128 128;" xml:space="preserve">
<style type="text/css">
	.st0{fill:#A7AAAD;}
	.st1{fill:#FF6400;}
</style>
<g>
	<g>
		<path class="st0" d="M57,120.8c-31.4,0-57-25.6-57-57c0-18,8.2-34.6,22.6-45.5c4.6-3.5,9.7-6.2,15.1-8.2C43.9,7.9,50.4,6.8,57,6.8
			c14.3,0,27.9,5.3,38.4,14.9c10.5,9.6,17,22.6,18.3,36.6c0.2,1.8,0.3,3.6,0.3,5.5c0,8.7-1.9,17.1-5.7,24.9
			c-4.6,9.5-11.8,17.5-20.7,23.2C78.5,117.8,67.9,120.8,57,120.8z M57,12.9c-5.9,0-11.7,1-17.2,3c-4.8,1.7-9.4,4.2-13.5,7.3
			C13.5,32.9,6.1,47.7,6.1,63.8c0,28.1,22.8,50.9,50.9,50.9c19.6,0,37.2-11,45.8-28.6c3.4-7,5.1-14.5,5.1-22.3
			c0-1.7-0.1-3.3-0.2-4.9C105.2,32.7,83.4,12.9,57,12.9z"/>
		<path class="st1" d="M6.4,100.7c25.3,1.9,66.4-0.8,100.7-30.2l6.1,11.9L128,51l-32.4-5l6.4,13.8c0,0-30.8,36.3-95.5,38.1
			C4.7,98,4.6,100.6,6.4,100.7z"/>
		<g>
			<path class="st0" d="M40.9,57.5v30c-5.4,1.4-11.2,2.6-17.5,3.4V57.5c0-2,1.6-3.6,3.6-3.6h10.2C39.3,53.8,40.9,55.5,40.9,57.5z"/>
			<path class="st0" d="M64.7,43.5V79c-5.2,2.4-11,4.7-17.5,6.7V43.5c0-2,1.6-3.6,3.6-3.6h10.2C63.1,39.9,64.7,41.5,64.7,43.5z"/>
			<path class="st0" d="M88.5,30.9v33.5c-4.3,3.4-10.1,7.4-17.5,11.4V30.9c0-2,1.6-3.6,3.6-3.6h10.2C86.9,27.3,88.5,28.9,88.5,30.9z
				"/>
		</g>
	</g>
	<path class="st0" d="M0,0"/>
	<path class="st0" d="M128,128"/>
</g>
</svg>
